<?xml version="1.0" encoding="UTF-8"?>
<svg id="Layer_0_Image" data-name="Layer 0 Image" xmlns="http://www.w3.org/2000/svg" viewBox="0 0 374 374">
  <defs>
    <style>
      .cls-1 {
        fill: #fff;
      }
    </style>
  </defs>
  <path class="cls-1" d="M374,0v374H0V0h374ZM368.21,186.74c0-99.79-80.9-180.69-180.69-180.69S6.82,86.95,6.82,186.74c0,99.79,80.9,180.69,180.69,180.69s180.69-80.9,180.69-180.69Z"/>
  <g>
    <path d="M368.21,186.74c0,99.79-80.9,180.69-180.69,180.69S6.82,286.53,6.82,186.74c0-99.79,80.9-180.69,180.69-180.69s180.69,80.9,180.69,180.69ZM349.33,186.79c0-89.38-72.45-161.83-161.83-161.83S25.67,97.41,25.67,186.79s72.45,161.83,161.83,161.83,161.83-72.45,161.83-161.83Z"/>
    <path class="cls-1" d="M349.33,186.79c0,89.38-72.45,161.83-161.83,161.83S25.67,276.16,25.67,186.79,98.12,24.96,187.5,24.96s161.83,72.45,161.83,161.83ZM210,166h-63l40.5-68.98,42.18,71.47-82.68,131.51h35.5l65-100.98,33.44,58.5,36.05.48-50.8-89.67,32.81-53.32h-35.5l-15,23-41.71-70.78-39.37.71-109.42,190.07,36.06-.51,36.9-62.94,61.1-.06,17.94-28.49Z"/>
    <polygon points="210 166 192.06 194.49 130.96 194.55 94.06 257.48 58.01 257.99 167.42 67.92 206.8 67.21 248.5 138 263.5 115 299 115 266.19 168.32 316.99 258 280.94 257.52 247.5 199.02 182.5 300 147 300 229.68 168.49 187.5 97.02 147 166 210 166"/>
  </g>
</svg>