<?xml version="1.0" encoding="UTF-8"?>
<svg id="Layer_0_Image" data-name="Layer 0 Image" xmlns="http://www.w3.org/2000/svg" viewBox="0 0 701 689">
  <defs>
    <style>
      .cls-1 {
        fill: #fff;
      }
    </style>
  </defs>
  <path class="cls-1" d="M326,0c-83.91,6.8-152.85,78.83-160.99,161.51-15.87,161.21,177.24,262.44,299.51,154.51C584.28,210.32,520.08,17.2,364,0h337v560l-59.93-75.64,55.92-70.88c.26-3.06-1.08-.49-1.49-.49h-35l-36.52,47.48-2.47,1.52-37.01-49h-35c-.4,0-1.75-2.57-1.49.48l54.81,71.01-60.82,77.51h36.5l39.53-51.47,4.44-3.53,41.75,54.78,36.79.22v127h-174c16.92-3.74,28.63-19.57,21.18-36.68-6.81-15.65-27.33-15.17-40.96-20.04-17.34-6.19-8.71-17.55,6.28-17.36,8.58.11,17.06,4.15,24.01,8.84l9.57-13.15c-20.91-19.17-73.99-17.05-66.84,21.66,3.34,18.12,31.73,17.75,44.45,23.55,11.78,5.38,5.74,16-5.18,17.19-11.54,1.25-23.2-2.83-32.19-9.87-1.51-.24-9.14,8.63-10.34,10.35-.59.84-1.36,1.05-.97,2.5,8.41,5.51,15.99,10.55,25.99,13.02H0v-127l34.02-.48c2.13-1.29,11.41-28.18,15.08-32.92,1-1.29,1.61-1.78,3.34-1.66l67.9.22c2.61.9,14.41,30.14,15.66,34.84h34l-68.46-149.07-33.38.24L0,561V0h326ZM354,562h30v-101l53.51,93.01,54.49-92.01v100h29v-149h-33l-49.02,86-49.14-85.84-34.36-1.12-1.44,1.44-.04,148.52ZM332,562l-37.98-51.5c16.64-7.33,28.45-17.59,31.71-36.27,3.94-22.62-3.26-47.21-25.75-56.71-2.47-1.04-12.49-4.52-14.48-4.52h-100.5v149h31v-49h43.5l35,49h37.5ZM166,601h-17v87h65v-16h-48v-71ZM336,688l-35.49-86.01c-1.65-2.01-17-.94-20.52-.5l-36.99,86.51h19.5l9.16-18.84,37.23-.04,7.61,18.88h19.5ZM416.5,601c-14.89-1.58-32.33,1.17-47.5,0v87h49.5c1.49,0,7.91-1.61,9.77-2.23,20.1-6.7,20.64-34.34,2.73-44.28,8.11-4.39,9.92-12.29,9.04-21.05-1.17-11.76-12.71-18.3-23.55-19.45Z"/>
  <path d="M364,0c156.08,17.2,220.28,210.32,100.53,316.03-122.28,107.93-315.38,6.7-299.51-154.51C173.15,78.83,242.09,6.8,326,0h38ZM507.23,179.78c0-89.33-72.42-161.75-161.75-161.75s-161.75,72.42-161.75,161.75,72.42,161.75,161.75,161.75,161.75-72.42,161.75-161.75Z"/>
  <path d="M0,561l68.16-147.84,33.38-.24,68.46,149.07h-34c-1.25-4.7-13.05-33.94-15.66-34.84l-67.9-.22c-1.73-.12-2.34.37-3.34,1.66-3.67,4.74-12.95,31.63-15.08,32.92l-34.02.48v-1ZM109,500l-23.5-53.01-23.5,53.01h47Z"/>
  <path d="M701,562l-36.79-.22-41.75-54.78-4.44,3.53-39.53,51.47h-36.5l60.82-77.51-54.81-71.01c-.27-3.05,1.08-.48,1.49-.48h35l37.01,49,2.47-1.52,36.52-47.48h35c.41,0,1.75-2.57,1.49.49l-55.92,70.88,59.93,75.64v2Z"/>
  <path d="M502,689c-10-2.47-17.58-7.51-25.99-13.02-.39-1.46.38-1.66.97-2.5,1.2-1.72,8.83-10.58,10.34-10.35,8.99,7.04,20.65,11.13,32.19,9.87,10.92-1.19,16.97-11.81,5.18-17.19-12.71-5.81-41.11-5.43-44.45-23.55-7.14-38.71,45.93-40.82,66.84-21.66l-9.57,13.15c-6.96-4.69-15.44-8.73-24.01-8.84-14.99-.19-23.62,11.18-6.28,17.36,13.63,4.86,34.15,4.38,40.96,20.04,7.45,17.11-4.27,32.94-21.18,36.68h-25Z"/>
  <polygon points="354 562 354.04 413.48 355.48 412.04 389.84 413.16 438.98 499 488 413 521 413 521 562 492 562 492 462 437.51 554.01 384 461 384 562 354 562"/>
  <path d="M332,562h-37.5l-35-49h-43.5v49h-31v-149h100.5c1.99,0,12.01,3.48,14.48,4.52,22.48,9.5,29.69,34.09,25.75,56.71-3.26,18.68-15.07,28.95-31.71,36.27l37.98,51.5ZM216,483h62.5c1.01,0,6.58-2.38,7.84-3.16,11.58-7.16,12.8-27.01,1-34.68-.88-.57-6.4-3.16-6.84-3.16h-64.5v41Z"/>
  <path d="M416.5,601c10.84,1.15,22.38,7.69,23.55,19.45.87,8.75-.93,16.65-9.04,21.05,17.91,9.94,17.37,37.58-2.73,44.28-1.86.62-8.28,2.23-9.77,2.23h-49.5v-87c15.17,1.17,32.61-1.58,47.5,0ZM414.5,617c-8.07-1.44-19.98,1.06-28.5,0v16.5l2.04,1.09c6.51-2.56,31.41,3.01,33.53-4.49,1.67-5.9-.7-11.96-7.07-13.1ZM386,672h31.5c1.15,0,6.03-2.72,6.98-4.02,2.83-3.89,2.11-10.28-1.43-13.53-1-.91-5.64-3.45-6.55-3.45h-30.5v21Z"/>
  <path d="M336,688h-19.5l-7.61-18.88-37.23.04-9.16,18.84h-19.5l36.99-86.51c3.52-.44,18.87-1.5,20.52.5l35.49,86.01ZM303,654l-13.5-33.01-12.5,33.01h26Z"/>
  <polygon points="166 601 166 672 214 672 214 688 149 688 149 601 166 601"/>
  <path class="cls-1" d="M507.23,179.78c0,89.33-72.42,161.75-161.75,161.75s-161.75-72.42-161.75-161.75S256.15,18.02,345.48,18.02s161.75,72.42,161.75,161.75ZM216,251h35.5l36.66-62.84,62.14-.14,17.71-29.02h-63l40.5-68.98,41.52,71.4-82.02,131.58h35.5l64.51-100.99,34.49,58.99h35.5l-50.83-89.66,32.83-53.34h-35.5l-15,23-41.49-70.51h-39.02s-109.99,190.51-109.99,190.51Z"/>
  <polygon class="cls-1" points="109 500 62 500 85.5 446.99 109 500"/>
  <path class="cls-1" d="M216,483v-41h64.5c.44,0,5.96,2.59,6.84,3.16,11.8,7.66,10.58,27.51-1,34.68-1.26.78-6.83,3.16-7.84,3.16h-62.5Z"/>
  <path class="cls-1" d="M386,672v-21h30.5c.9,0,5.55,2.54,6.55,3.45,3.54,3.25,4.26,9.64,1.43,13.53-.95,1.3-5.83,4.02-6.98,4.02h-31.5Z"/>
  <path class="cls-1" d="M414.5,617c6.36,1.13,8.73,7.19,7.07,13.1-2.12,7.51-27.02,1.93-33.53,4.49l-2.04-1.09v-16.5c8.52,1.06,20.43-1.44,28.5,0Z"/>
  <polygon class="cls-1" points="303 654 277 654 289.5 620.99 303 654"/>
  <polygon points="216 251 325.99 60.49 365.01 60.49 406.5 131 421.5 108 457 108 424.17 161.34 475 251 439.5 251 405.01 192.01 340.5 293 305 293 387.02 161.42 345.5 90.02 305 159 368 159 350.29 188.02 288.16 188.16 251.5 251 216 251"/>
</svg>